
        <svg xmlns="http://www.w3.org/2000/svg" xmlns:xlink="http://www.w3.org/1999/xlink" version="1.1" width="3200" height="2465.6165583129814" viewBox="0 0 3200 2465.6165583129814">
			
			<g transform="scale(10) translate(10, 10)">
				<defs id="SvgjsDefs7966"><linearGradient id="SvgjsLinearGradient7969"><stop id="SvgjsStop7970" stop-color="#8f5e25" offset="0"/><stop id="SvgjsStop7971" stop-color="#fbf4a1" offset="0.5"/><stop id="SvgjsStop7972" stop-color="#8f5e25" offset="1"/></linearGradient></defs><g id="SvgjsG7967" featureKey="nameFeature-0" transform="matrix(8.091487708260647,0,0,8.091487708260647,-12.946380526133137,-97.09784478248376)" fill="#fff"><path d="M10.56 40 l0 -5.04 l1.48 0 l0.76 -0.76 l0 -5.68 l-2.52 0 l0 -5.04 l7.56 0 l0 12.8 l-3.72 3.72 l-3.56 0 z M5.32 40 l-3.72 -3.72 l0 -6.08 l5.04 0 l0 4 l0.76 0.76 l1.48 0 l0 5.04 l-3.56 0 z M1.6 28.52 l0 -12.8 l3.72 -3.72 l3.56 0 l0 5.04 l-1.48 0 l-0.76 0.76 l0 10.72 l-5.04 0 z M12.8 20.96 l0 -3.16 l-0.76 -0.76 l-1.48 0 l0 -5.04 l3.56 0 l3.72 3.72 l0 5.24 l-5.04 0 z M29.996000000000002 40 l0 -5.04 l2.88 0 l0.76 -0.76 l0 -4.08 l-1.6 -1.6 l-2.04 0 l0 -5.04 l2.04 0 l1.6 -1.6 l0 -4.08 l-0.76 -0.76 l-2.88 0 l0 -5.04 l4.96 0 l3.72 3.72 l0 8.24 l-2.04 2.04 l2.04 2.04 l0 8.24 l-3.72 3.72 l-4.96 0 z M23.276000000000003 40 l0 -9.8 l5.04 0 l0 9.8 l-5.04 0 z M23.276000000000003 28.52 l0 -16.52 l5.04 0 l0 16.52 l-5.04 0 z"/></g>
			</g>
		</svg>
	